<svg width="192" height="40" viewBox="0 0 192 40" fill="none" xmlns="http://www.w3.org/2000/svg">
<path d="M7.22441 27.321C8.11162 29.7291 10.1395 30.553 12.7378 30.553C14.6389 30.553 16.2232 29.8559 17.1104 28.8419L22.6238 32.0105C20.4058 35.1791 17.0471 36.7 12.6744 36.7C4.81627 36.7 0 31.3768 0 24.596C0 17.8152 5.00639 12.4919 12.1674 12.4919C18.8849 12.4919 23.8279 17.6884 23.8279 24.596C23.8279 25.5466 23.7645 26.4972 23.5744 27.321H7.22441ZM16.9203 22.2512C16.1599 19.5262 14.132 18.639 12.0407 18.639C9.37906 18.639 7.73139 19.8431 7.0343 22.2512H16.9203Z" fill="#20347F"/>
<path d="M59.8866 36.0662H52.5988V17.4349L44.2971 30.9965H43.4732L35.1715 17.4349V36.0662H27.8837V4H35.2349L43.9169 18.2587L52.5988 4H59.95V36.0662H59.8866Z" fill="#20347F"/>
<path d="M88.6575 13.1256V36.0029H81.8133V33.8482C80.2924 35.6226 78.0744 36.6366 74.9692 36.6366C68.9488 36.6366 64.0058 31.3133 64.0058 24.5325C64.0058 17.7517 68.9488 12.4285 74.9692 12.4285C78.0744 12.4285 80.2924 13.4424 81.8133 15.2168V13.0622H88.6575V13.1256ZM81.8133 24.5959C81.8133 21.1104 79.532 19.0192 76.3633 19.0192C73.1947 19.0192 70.9134 21.1104 70.9134 24.5959C70.9134 28.0814 73.1947 30.1726 76.3633 30.1726C79.532 30.1726 81.8133 28.0814 81.8133 24.5959Z" fill="#20347F"/>
<path d="M115.654 21.9977V36.0663H108.81V23.0117C108.81 20.0966 107.035 18.8291 104.817 18.8291C102.282 18.8291 100.571 20.2233 100.571 23.5187V36.0029H93.7272V13.1257H100.571V15.2803C101.839 13.5693 104.057 12.4919 107.099 12.4919C111.725 12.4919 115.654 15.7873 115.654 21.9977Z" fill="#20347F"/>
<path d="M137.01 13.1257V15.2803C135.489 13.5059 133.271 12.4919 130.166 12.4919C124.146 12.4919 119.203 17.8152 119.203 24.596C119.203 31.3768 124.146 36.7 130.166 36.7C133.271 36.7 135.489 35.6861 137.01 33.9117V36.0663H143.854V13.1257H137.01ZM131.56 30.1727C128.392 30.1727 126.11 28.0815 126.11 24.596C126.11 21.1105 128.392 19.0193 131.56 19.0193C134.729 19.0193 137.01 21.1105 137.01 24.596C137.01 28.0815 134.729 30.1727 131.56 30.1727Z" fill="#20347F"/>
<path d="M157.606 19.7797V27.8913C157.606 29.8559 159.254 30.046 162.296 29.8559V36.0663C153.297 37.0169 150.699 34.2285 150.699 27.8913V19.7797H147.023V13.1257H150.699V8.81637L157.543 6.7251V13.1257H162.232V19.7164H157.606V19.7797Z" fill="#20347F"/>
<path d="M184 16V8H176V16H168L168 24H176V32H184V24H192L192 16H184Z" fill="#FF7E00"/>
</svg>
