<?xml version="1.0" encoding="UTF-8"?>
<svg width="100px" height="32px" viewBox="0 0 100 32" version="1.1" xmlns="http://www.w3.org/2000/svg" xmlns:xlink="http://www.w3.org/1999/xlink">
    <!-- Generator: Sketch 56 (81588) - https://sketch.com -->
    <title>logo Million2</title>
    <desc>Created with Sketch.</desc>
    <g id="Main" stroke="none" stroke-width="1" fill="none" fill-rule="evenodd">
        <g id="Million-mainpage" transform="translate(-147.000000, -45.000000)" fill="#FEFEFE">
            <g id="logo-Million2" transform="translate(147.000000, 45.000000)">
                <g id="Group">
                    <path d="M46.13542,0.491216007 C46.1407431,0.0679341286 46.5452997,-0.14109396 47.0084105,0.114965448 L49.2707335,1.33777976 C49.6114128,1.53113075 49.8190142,1.8969299 49.8190142,2.28363186 C49.8190142,7.88035892 49.8190142,13.477086 49.8190142,19.073813 C49.8190142,20.0771479 48.9939317,20.8923574 47.971894,20.8923574 C46.9498563,20.8923574 46.1194507,20.0771479 46.1194507,19.073813 C46.1194507,12.8813559 46.13542,6.68889882 46.13542,0.491216007 Z" id="Shape"></path>
                    <path d="M42.3773022,0.491216007 C42.3773022,0.0679341286 41.9727457,-0.14109396 41.5043117,0.114965448 L39.2473118,1.33777976 C38.9066326,1.53113075 38.6990312,1.8969299 38.6990312,2.28363186 C38.6990312,7.88035892 38.6990312,13.477086 38.6990312,19.073813 C38.6990312,20.0771479 39.5241137,20.8923574 40.5461514,20.8923574 C41.5681891,20.8923574 42.3985947,20.0771479 42.3985947,19.073813 C42.3985947,12.8813559 42.3773022,6.68889882 42.3773022,0.491216007 Z" id="Shape"></path>
                    <path d="M79.4847227,6.27606835 L79.6444161,6.54257916 C80.5120835,8.02145288 80.9485787,9.61529205 80.9485787,11.3293224 C80.9485787,13.0590298 80.5067604,14.6685461 79.6390929,16.1735483 C78.7607793,17.6785506 77.5737251,18.8491078 76.0672841,19.6956716 C74.5608432,20.5370097 72.9000319,20.9655172 71.0795273,20.9655172 C68.4073246,20.9655172 66.1290323,20.0301165 64.2446503,18.1645409 C62.3549452,16.2989652 61.4074311,14.0310104 61.4074311,11.3659023 C61.4074311,9.46897239 61.8811881,7.78629628 62.8446716,6.27084264 C63.2811668,5.66466119 63.9625253,5.29363633 64.7290536,5.29363633 C65.9853082,5.29363633 67.0073459,6.29174545 67.0073459,7.52501117 C67.0073459,7.91171314 66.9062067,8.27228659 66.7252209,8.59628013 C66.2834025,9.39581256 66.0651549,10.3103104 66.0651549,11.3502252 C66.0651549,12.9440644 66.538912,14.2295871 67.4970723,15.2172448 C68.4499095,16.1996768 69.652933,16.6961185 71.1167891,16.6961185 C72.575322,16.6961185 73.7943149,16.1944511 74.7631215,15.196342 C75.731928,14.1982329 76.2163313,12.9179358 76.2163313,11.3502252 C76.2163313,10.2789562 75.9980837,9.34878124 75.5615884,8.5387974 C75.4125413,8.23048097 75.3273714,7.89081033 75.3273714,7.53546258 C75.3273714,6.30219686 76.3494091,5.30408774 77.6056638,5.30408774 C78.3828383,5.30408774 79.074843,5.6907897 79.4847227,6.27606835 Z" id="Shape"></path>
                    <path d="M100,18.4937601 C100,15.635301 100,12.7820676 100,8.80530821 C100,6.69412452 99.43575,5.10551105 98.2912807,4.0342421 C96.9392101,2.76439647 95.2943681,2.1268608 93.3514319,2.1268608 C92.4092409,2.1268608 91.4830193,2.29930897 90.5834132,2.64420532 C89.678484,2.98387596 88.6724156,3.59005741 87.5545619,4.4941039 C87.5492388,3.19812975 86.4580006,2.1268608 85.1112531,2.1268608 C83.7645055,2.1268608 82.6732673,3.19812975 82.6732673,4.52545811 C82.6732673,9.46897239 82.6732673,14.5588063 82.6732673,18.4937601 C82.6732673,19.8158628 83.7645055,20.8923574 85.1112531,20.8923574 C86.4633238,20.8923574 87.5545619,19.8158628 87.5545619,18.4937601 C87.5545619,16.9574037 87.5545619,15.5151098 87.5545619,13.5450201 C87.5545619,11.6428645 87.6290855,10.4043731 87.7674864,9.82954585 C88.0442883,8.73214838 88.5446609,7.86990752 89.2526349,7.25327466 C89.9659321,6.62619039 90.8176302,6.31787396 91.8130523,6.31787396 C92.5795805,6.31787396 93.2183541,6.50599924 93.7400192,6.8822498 C94.2616842,7.25850036 94.628979,7.80197339 94.8365804,8.52312029 C95.0441818,9.2390415 95.1506441,10.6917867 95.1506441,12.8761302 C95.1506441,15.7241379 95.1506441,16.5288961 95.1506441,18.4937601 C95.1506441,19.8158628 96.2365591,20.8923574 97.5726605,20.8923574 C98.914085,20.8923574 99.9946769,19.8158628 100,18.4937601 Z" id="Shape"></path>
                    <path d="M74.0657937,1.25939423 C74.6726286,1.25939423 75.1942936,1.46842232 75.6307889,1.9021556 C76.061961,2.32021178 76.2748856,2.8375563 76.2748856,3.43851205 C76.2748856,4.0290164 76.061961,4.53068381 75.6307889,4.95396569 C75.1942936,5.38247327 74.6726286,5.59672706 74.0657937,5.59672706 C73.4642819,5.59672706 72.94794,5.38247327 72.5114447,4.95396569 C72.0802725,4.53590951 71.8620249,4.0290164 71.8620249,3.43851205 C71.8620249,2.8375563 72.0802725,2.32021178 72.5114447,1.9021556 C72.94794,1.46842232 73.4642819,1.25939423 74.0657937,1.25939423 Z" id="Shape"></path>
                    <path d="M68.2795699,1.25939423 C68.8864048,1.25939423 69.4080698,1.46842232 69.8445651,1.9021556 C70.2757373,2.32021178 70.4886618,2.8375563 70.4886618,3.43851205 C70.4886618,4.0290164 70.2757373,4.53068381 69.8445651,4.95396569 C69.4080698,5.38247327 68.8864048,5.59672706 68.2795699,5.59672706 C67.6780581,5.59672706 67.1617162,5.38247327 66.7252209,4.95396569 C66.2940488,4.53590951 66.0758011,4.0290164 66.0758011,3.43851205 C66.0758011,2.8375563 66.2940488,2.32021178 66.7252209,1.9021556 C67.1617162,1.46842232 67.6780581,1.25939423 68.2795699,1.25939423 Z" id="Shape"></path>
                    <path d="M33.1150857,0.0470313198 C32.4284041,0.0470313198 31.8481848,0.276962217 31.3584584,0.75772682 C30.868732,1.23849142 30.6345151,1.80809296 30.6345151,2.48220855 C30.6345151,3.18767834 30.8740551,3.7834084 31.3744278,4.28507581 C31.8641542,4.77629181 32.4496966,5.02189982 33.1523475,5.02189982 C33.8390291,5.02189982 34.403279,4.77629181 34.8876823,4.29552721 C35.3827318,3.80953691 35.6116257,3.23470966 35.6116257,2.55014268 C35.6116257,1.85512428 35.3774087,1.26984564 34.8823592,0.773403926 C34.3926328,0.292639323 33.8124135,0.0470313198 33.1150857,0.0470313198 Z" id="Shape"></path>
                    <path d="M34.9622059,19.073813 C34.9622059,15.8443291 34.9622059,12.6200708 34.9622059,9.39058686 C34.9622059,8.38725204 34.1371234,7.57204249 33.1150857,7.57204249 C32.093048,7.57204249 31.2626424,8.38725204 31.2626424,9.39058686 C31.2626424,12.6200708 31.2626424,15.8443291 31.2626424,19.073813 C31.2626424,20.0771479 32.093048,20.8923574 33.1150857,20.8923574 C34.1371234,20.8923574 34.9622059,20.0771479 34.9622059,19.073813 Z" id="Shape"></path>
                    <path d="M3.6995635,4.92261148 C3.6995635,3.91927665 2.86915788,3.10406711 1.8471202,3.10406711 C0.825082508,3.10406711 0,3.91927665 0,4.92261148 C0,9.63619486 0,14.355004 0,19.073813 C0,20.0771479 0.825082508,20.8923574 1.8471202,20.8923574 C2.86915788,20.8923574 3.6995635,20.0771479 3.6995635,19.073813 C3.6995635,17.1298518 3.6995635,15.1858906 3.6995635,13.2419294 C3.6995635,11.9825352 3.75279463,10.388696 4.20525924,9.20246158 C4.52996913,8.35589782 5.04631108,7.61384811 5.79687001,7.07560078 C6.51016715,6.56348197 7.31928032,6.30219686 8.20291707,6.30219686 C8.95879911,6.30219686 9.66677313,6.49032214 10.2789311,6.93450682 C10.9177047,7.39959432 11.3169381,8.07893561 11.5564782,8.81053392 C11.923773,9.90793138 11.9503886,11.3659023 11.9503886,12.5207825 C11.9503886,14.6999003 11.9503886,16.8842438 11.9503886,19.0685873 C11.9503886,20.0771479 12.7807942,20.8923574 13.808155,20.8923574 C14.8355158,20.8923574 15.6659214,20.0771479 15.6659214,19.0685873 C15.6659214,17.0880462 15.6659214,15.1075051 15.6659214,13.1269639 C15.6659214,11.8989239 15.7138294,10.2946333 16.1609709,9.14497886 C16.4910039,8.3036408 17.0073459,7.5877196 17.7525817,7.06514938 C18.4765251,6.55303056 19.3016076,6.30219686 20.1905674,6.30219686 C21.3190674,6.30219686 22.2985202,6.68889882 22.9585862,7.60862241 C23.75173,8.71647128 23.8368998,10.7753979 23.8368998,12.1027263 C23.8368998,14.4281638 23.8368998,16.7483756 23.8368998,19.073813 C23.8368998,20.0771479 24.6673054,20.8923574 25.6893431,20.8923574 C26.7113808,20.8923574 27.5364633,20.0771479 27.5364633,19.073813 C27.5364633,16.267611 27.5524327,13.4614089 27.5524327,10.6552068 C27.5524327,9.30697562 27.4938784,7.33166019 26.9349516,6.09839447 C26.5144256,5.17344518 25.8383903,4.47320109 24.9653998,3.94540516 C23.9753008,3.34967511 22.8787395,3.10406711 21.7289471,3.10406711 C20.5631854,3.10406711 19.4559779,3.35490081 18.4286171,3.89314814 C17.3799638,4.43662117 16.538912,5.2257022 15.8735228,6.18723141 L15.410412,6.8665727 L15.0218248,6.14020009 C14.5320984,5.2152508 13.856063,4.42616977 12.9404876,3.87747104 C12.0568508,3.34444941 11.0880443,3.10406711 10.0500373,3.10406711 C9.01735335,3.10406711 8.011285,3.29219239 7.06377089,3.70502286 C6.10028745,4.12307904 5.26988183,4.75538901 4.5619078,5.51834153 L3.6995635,6.45896792 L3.6995635,4.92261148 Z" id="Shape"></path>
                    <path d="M57.2341105,19.073813 C57.2341105,15.8443291 57.2341105,12.6200708 57.2341105,9.39058686 C57.2341105,8.38725204 56.409028,7.57204249 55.3869903,7.57204249 C54.3649526,7.57204249 53.534547,8.38725204 53.534547,9.39058686 C53.534547,12.6200708 53.534547,15.8443291 53.534547,19.073813 C53.534547,20.0771479 54.3649526,20.8923574 55.3869903,20.8923574 C56.409028,20.8923574 57.2341105,20.0771479 57.2341105,19.073813 Z" id="Shape"></path>
                    <path d="M55.3869903,0.0470313198 C54.7003087,0.0470313198 54.1200894,0.276962217 53.630363,0.75772682 C53.1406366,1.23849142 52.9064197,1.80809296 52.9064197,2.48220855 C52.9064197,3.18767834 53.1459598,3.7834084 53.6463324,4.28507581 C54.1360588,4.77629181 54.7216012,5.02189982 55.4242521,5.02189982 C56.1109337,5.02189982 56.6751836,4.77629181 57.1595869,4.29552721 C57.6546364,3.80953691 57.8835303,3.23470966 57.8835303,2.55014268 C57.8835303,1.85512428 57.6493133,1.26984564 57.1542638,0.773403926 C56.6645374,0.292639323 56.0843181,0.0470313198 55.3869903,0.0470313198 Z" id="Shape"></path>
                </g>
                <path d="M69.2974987,26.4827586 C69.5529537,26.4827586 69.7551889,26.6928879 69.7551889,26.9515086 C69.7551889,27.2047414 69.5529537,27.4148707 69.2974987,27.4148707 C69.0420436,27.4148707 68.8344864,27.2047414 68.8344864,26.9515086 C68.8344864,26.6928879 69.0420436,26.4827586 69.2974987,26.4827586 Z M70.7610431,26.4827586 C71.0164981,26.4827586 71.2240553,26.6928879 71.2240553,26.9515086 C71.2240553,27.2047414 71.0164981,27.4148707 70.7610431,27.4148707 C70.5055881,27.4148707 70.2980309,27.2047414 70.2980309,26.9515086 C70.2980309,26.6928879 70.5055881,26.4827586 70.7610431,26.4827586 Z M28.3182544,26.4827586 C28.5737094,26.4827586 28.7812666,26.6928879 28.7812666,26.9515086 C28.7812666,27.2047414 28.5737094,27.4148707 28.3182544,27.4148707 C28.0627994,27.4148707 27.8552422,27.2047414 27.8552422,26.9515086 C27.8552422,26.6928879 28.0627994,26.4827586 28.3182544,26.4827586 Z M29.7817988,26.4827586 C30.0372539,26.4827586 30.2448111,26.6928879 30.2448111,26.9515086 C30.2448111,27.2047414 30.0372539,27.4148707 29.7817988,27.4148707 C29.5263438,27.4148707 29.3241086,27.2047414 29.3241086,26.9515086 C29.3241086,26.6928879 29.5263438,26.4827586 29.7817988,26.4827586 Z M99.9733901,31.4342672 C99.9733901,31.4665948 99.9680681,31.4989224 99.9627461,31.5366379 C99.9521022,31.5851293 99.9308143,31.6336207 99.9095263,31.6767241 C99.8722725,31.7306034 99.8243747,31.7790948 99.7658329,31.8114224 C99.6966472,31.8545259 99.6168175,31.8653017 99.5369878,31.8653017 C99.4305482,31.8653017 99.3241086,31.8329741 99.2389569,31.7575431 C99.1431613,31.6767241 99.1059074,31.5581897 99.1059074,31.4342672 L99.1059074,28.0398707 C99.1059074,28.0021552 99.1112294,27.9698276 99.1165514,27.9321121 C99.1271953,27.8782328 99.1484832,27.8297414 99.1804151,27.78125 C99.212347,27.7273707 99.2602448,27.6842672 99.3187866,27.6573276 C99.3826503,27.6196121 99.46248,27.6034483 99.5369878,27.6034483 C99.6168175,27.6034483 99.6966472,27.6196121 99.7658329,27.6573276 C99.8243747,27.6950431 99.8722725,27.7381466 99.9095263,27.7974138 C99.9308143,27.8405172 99.9521022,27.8836207 99.9627461,27.9375 C99.9680681,27.9698276 99.9733901,28.0021552 99.9733901,28.0398707 L99.9733901,31.4342672 Z M95.0718467,29.2790948 C95.1889303,29.3114224 95.3060138,29.3491379 95.4177754,29.3922414 C95.5561469,29.4461207 95.6891964,29.5161638 95.8062799,29.6131466 C95.9340075,29.7155172 96.040447,29.8448276 96.1149548,29.9903017 C96.2107504,30.1681034 96.2426823,30.3728448 96.2426823,30.5775862 C96.2426823,30.7984914 96.2001064,31.0140086 96.0883449,31.2079741 C95.9925492,31.375 95.8594997,31.5096983 95.6998403,31.6174569 C95.5401809,31.7144397 95.3698776,31.7844828 95.1889303,31.8275862 C95.0186269,31.8653017 94.8430016,31.8868534 94.6673763,31.8868534 C94.465141,31.8868534 94.2682278,31.8599138 94.0713145,31.8060345 C93.8744013,31.7575431 93.688132,31.6713362 93.5284726,31.5420259 C93.432677,31.4719828 93.3475253,31.3803879 93.2783395,31.2834052 C93.2251197,31.2025862 93.1718999,31.1109914 93.1293241,31.0193966 C93.0973922,30.9439655 93.0707823,30.8685345 93.0548164,30.7823276 C93.0388505,30.7284483 93.0282065,30.674569 93.0282065,30.6206897 C93.0282065,30.5344828 93.0494944,30.4482759 93.0973922,30.3782328 C93.1346461,30.3297414 93.1825439,30.28125 93.2410857,30.2489224 C93.2889835,30.2219828 93.3422033,30.205819 93.3954231,30.1950431 C93.4379989,30.1842672 93.4752528,30.1788793 93.5178286,30.1788793 C93.6295902,30.1788793 93.7519957,30.205819 93.8211815,30.2974138 C93.8637573,30.3512931 93.8903672,30.4105603 93.9063332,30.4698276 C93.9329431,30.5614224 93.9648749,30.6476293 93.9968068,30.7338362 C94.0234167,30.8146552 94.0979244,30.8793103 94.1617882,30.9224138 C94.2416179,30.987069 94.3374135,31.0301724 94.4385311,31.0409483 C94.5290048,31.0571121 94.6248004,31.0678879 94.7152741,31.0678879 C94.7525279,31.0678879 94.7951038,31.0678879 94.8323576,31.0678879 C94.8749335,31.0625 94.9175093,31.0571121 94.9600852,31.0517241 C95.007983,31.0409483 95.0558808,31.0247845 95.1037786,31.0086207 C95.1410325,30.9978448 95.1782863,30.9762931 95.2102182,30.9493534 C95.258116,30.9116379 95.3006919,30.8631466 95.3273018,30.8092672 C95.3539117,30.75 95.3698776,30.6907328 95.3698776,30.6260776 C95.3698776,30.5668103 95.3592336,30.5075431 95.3326237,30.4590517 C95.3060138,30.4213362 95.274082,30.3728448 95.2368281,30.3405172 C95.1676424,30.2866379 95.0878127,30.2435345 95.007983,30.2165948 C94.8855774,30.1681034 94.7578499,30.1303879 94.6301224,30.0926724 L94.2309739,29.9795259 C94.1511442,29.9579741 94.0766365,29.9310345 93.9968068,29.9040948 C93.9222991,29.8825431 93.8531134,29.8502155 93.7786056,29.8178879 C93.7307078,29.7963362 93.677488,29.7693966 93.6349122,29.7424569 C93.5550825,29.6939655 93.4912187,29.6293103 93.432677,29.5646552 C93.3634912,29.4784483 93.3102714,29.3760776 93.2676956,29.2737069 C93.2144758,29.1390086 93.1931879,28.9935345 93.1931879,28.8480603 C93.1931879,28.6756466 93.2251197,28.5032328 93.2836615,28.3469828 C93.3475253,28.1853448 93.4433209,28.0452586 93.5710484,27.9321121 C93.7094199,27.8081897 93.8690793,27.7273707 94.0393827,27.6681034 C94.2362959,27.6034483 94.4544971,27.5765086 94.6620543,27.5765086 C94.736562,27.5765086 94.8110697,27.5818966 94.8855774,27.5872845 C94.9760511,27.5926724 95.0718467,27.6088362 95.1623204,27.6303879 C95.263438,27.6519397 95.3645556,27.6842672 95.4603513,27.7273707 C95.5614689,27.7758621 95.6625865,27.8405172 95.7477382,27.9159483 C95.8116019,27.9698276 95.8701437,28.0290948 95.9233635,28.0991379 C95.9712613,28.1637931 96.0191591,28.2284483 96.056413,28.2984914 C96.0883449,28.3631466 96.1202767,28.4331897 96.1415647,28.5032328 C96.1628526,28.5625 96.1788185,28.6271552 96.1788185,28.6971983 C96.1788185,28.8265086 96.1309207,28.9450431 96.0244811,29.03125 C95.9393294,29.0959052 95.8382118,29.1282328 95.7264502,29.1282328 C95.6785524,29.1282328 95.6253326,29.1174569 95.5774348,29.1012931 C95.5082491,29.0743534 95.4497073,29.0204741 95.4071315,28.955819 C95.3858435,28.9234914 95.3698776,28.8857759 95.3485897,28.8480603 C95.3326237,28.8157328 95.3166578,28.7834052 95.3006919,28.7510776 C95.2847259,28.7079741 95.258116,28.6702586 95.2368281,28.6325431 C95.2102182,28.5894397 95.1729643,28.5571121 95.1357105,28.5247845 C95.0824907,28.481681 95.0133049,28.4493534 94.9494412,28.4224138 C94.8536456,28.3900862 94.741884,28.3793103 94.6407664,28.3793103 C94.5609367,28.3793103 94.475785,28.3900862 94.4012773,28.40625 C94.3374135,28.4224138 94.2841937,28.4439655 94.2362959,28.481681 C94.1883981,28.5140086 94.1564662,28.5571121 94.1245343,28.6056034 C94.0926024,28.6594828 94.0872805,28.7241379 94.0872805,28.7887931 C94.0872805,28.8157328 94.0872805,28.8803879 94.1032464,28.9019397 C94.1192123,28.9234914 94.1351783,28.9450431 94.1511442,28.9612069 C94.1937201,28.9989224 94.2629058,29.0258621 94.3214476,29.0420259 C94.4065993,29.0743534 94.4970729,29.1012931 94.5875466,29.1282328 L95.0718467,29.2790948 Z M82.2352315,28.4655172 L81.4688664,28.4655172 C81.4369345,28.4655172 81.4103246,28.4655172 81.3783928,28.4601293 C81.3304949,28.4547414 81.2825971,28.4331897 81.2346993,28.4008621 C81.1814795,28.3685345 81.1442257,28.3200431 81.1122938,28.2661638 C81.0803619,28.1961207 81.0697179,28.1260776 81.0697179,28.0506466 C81.0697179,27.9752155 81.0803619,27.8997845 81.1176158,27.8351293 C81.1495476,27.78125 81.1868015,27.7381466 81.2346993,27.705819 C81.2772751,27.6734914 81.3304949,27.6519397 81.3837147,27.6465517 C81.4103246,27.6411638 81.4422565,27.6357759 81.4688664,27.6357759 L83.8637573,27.6357759 C83.9276211,27.6357759 83.9968068,27.6465517 84.0553486,27.6788793 C84.1085684,27.7112069 84.1511442,27.7543103 84.1883981,27.8028017 C84.2469399,27.8728448 84.2629058,27.9644397 84.2629058,28.0560345 C84.2629058,28.1314655 84.2522618,28.2068966 84.215008,28.2715517 C84.1830761,28.3200431 84.1458222,28.3685345 84.0979244,28.4008621 C84.0500266,28.4331897 84.0021288,28.4547414 83.948909,28.4601293 C83.9169771,28.4655172 83.8903672,28.4655172 83.8637573,28.4655172 L83.1080362,28.4655172 L83.1080362,31.4342672 C83.1080362,31.4665948 83.1027142,31.5043103 83.0973922,31.5366379 C83.0867483,31.5905172 83.0654604,31.6443966 83.0335285,31.6875 C82.9962746,31.7413793 82.9483768,31.7844828 82.889835,31.8168103 C82.8206493,31.8545259 82.7461416,31.8653017 82.6663119,31.8653017 C82.5918042,31.8653017 82.5172964,31.8545259 82.4481107,31.8168103 C82.3842469,31.7844828 82.3363491,31.7413793 82.2990953,31.6821121 C82.2724854,31.6390086 82.2565194,31.5851293 82.2458755,31.5366379 C82.2405535,31.4989224 82.2352315,31.4665948 82.2352315,31.4342672 L82.2352315,28.4655172 Z M77.6796168,31.6174569 C77.6796168,31.6174569 77.6796168,31.6174569 77.6796168,31.6174569 C77.6051091,31.6713362 77.5199574,31.7090517 77.4348057,31.7413793 C77.3283662,31.7844828 77.2166046,31.8168103 77.099521,31.84375 C76.9558276,31.8760776 76.8014902,31.8868534 76.6524747,31.8868534 C76.3757318,31.8868534 76.1043108,31.84375 75.8488558,31.7359914 C75.6093667,31.6336207 75.3964875,31.4881466 75.2208622,31.299569 C75.0399148,31.1002155 74.9121873,30.8685345 74.8217137,30.6153017 C74.725918,30.3351293 74.6886642,30.0387931 74.6886642,29.7424569 C74.6886642,29.5592672 74.7046301,29.3760776 74.736562,29.1928879 C74.7684939,29.0043103 74.8323576,28.8211207 74.9175093,28.643319 C74.9866951,28.5032328 75.0718467,28.3739224 75.1729643,28.25 C75.2794039,28.1206897 75.4071315,28.0075431 75.5455029,27.9105603 C75.6998403,27.8028017 75.8648217,27.7219828 76.040447,27.6681034 C76.2373603,27.6034483 76.4449175,27.5765086 76.6524747,27.5765086 C76.9238957,27.5765086 77.1953167,27.6196121 77.4507717,27.7273707 C77.6902608,27.8243534 77.90314,27.9698276 78.0787653,28.1637931 C78.2650346,28.3577586 78.3927621,28.5948276 78.4832358,28.8480603 C78.5843534,29.1336207 78.6216072,29.4407328 78.6216072,29.7424569 C78.6216072,29.8448276 78.6162853,29.9471983 78.6109633,30.049569 C78.6003193,30.1573276 78.5790314,30.2704741 78.5524215,30.3782328 C78.5098457,30.5560345 78.4459819,30.7392241 78.3555082,30.9008621 C78.3288984,30.9385776 78.3022885,30.981681 78.2810005,31.0193966 L78.5311336,31.2780172 C78.5683874,31.3157328 78.5896754,31.3534483 78.6162853,31.3965517 C78.6428952,31.450431 78.6535391,31.5096983 78.6535391,31.5689655 C78.6535391,31.6821121 78.6056413,31.7844828 78.5258116,31.8706897 C78.4406599,31.9515086 78.3395423,32 78.2277807,32 C78.158595,32 78.0947312,31.9838362 78.0415114,31.9461207 C78.0042576,31.924569 77.9723257,31.9084052 77.9403938,31.8760776 L77.6796168,31.6174569 Z M70.0319319,27.5765086 C70.1809473,27.5765086 70.3299627,27.5980603 70.4789782,27.6196121 C70.6865354,27.6573276 70.8834486,27.7327586 71.064396,27.8405172 C71.2666312,27.9590517 71.4475785,28.1153017 71.58595,28.3038793 C71.7030335,28.4655172 71.8041511,28.643319 71.8680149,28.8372845 C71.9212347,28.9989224 71.9638105,29.1659483 71.9797765,29.3383621 C71.9904204,29.4622845 72.0010644,29.5862069 72.0010644,29.7101293 C72.0010644,29.9040948 71.9850985,30.0980603 71.9425226,30.2866379 C71.8999468,30.5075431 71.8201171,30.7176724 71.7136775,30.9170259 C71.6072379,31.1056034 71.4741884,31.2780172 71.309207,31.4234914 C71.1389037,31.5743534 70.9473124,31.6875 70.7397552,31.762931 C70.516232,31.8491379 70.2820649,31.8868534 70.0425758,31.8868534 C69.7764768,31.8868534 69.5156998,31.84375 69.2708888,31.7521552 C69.0260777,31.6605603 68.8131985,31.5204741 68.6322512,31.3318966 C68.4406599,31.143319 68.3022885,30.90625 68.2064928,30.6530172 C68.0947312,30.362069 68.0574774,30.049569 68.0574774,29.737069 C68.0574774,29.424569 68.1000532,29.112069 68.2118148,28.8265086 C68.3076104,28.5732759 68.4459819,28.3415948 68.6375732,28.1422414 C68.8185205,27.9590517 69.0313997,27.8189655 69.2708888,27.7219828 C69.5156998,27.625 69.7711549,27.5765086 70.0319319,27.5765086 Z M62.7674295,29.268319 L62.7780734,31.4396552 C62.7780734,31.4773707 62.7727515,31.5096983 62.7674295,31.5474138 C62.7567855,31.5959052 62.7354976,31.6443966 62.7088877,31.6875 C62.6769558,31.7413793 62.629058,31.7844828 62.5758382,31.8168103 C62.5066525,31.8545259 62.4268228,31.8653017 62.3523151,31.8653017 C62.2724854,31.8653017 62.1926557,31.8545259 62.1234699,31.8168103 C62.0702501,31.7898707 62.0170303,31.7467672 61.9850985,31.6982759 C61.9531666,31.6551724 61.9318787,31.606681 61.9212347,31.5528017 C61.9159127,31.5150862 61.9105907,31.4773707 61.9105907,31.4450431 L61.9105907,28.0452586 C61.9105907,28.0075431 61.9105907,27.9698276 61.9159127,27.9375 C61.9265567,27.8728448 61.9531666,27.8135776 61.9957424,27.7650862 C62.0596062,27.6842672 62.1500798,27.6303879 62.2565194,27.6142241 C62.3097392,27.6088362 62.357637,27.5980603 62.4108568,27.5980603 C62.5013305,27.5980603 62.5971261,27.6142241 62.6716338,27.6681034 C62.7248536,27.705819 62.7727515,27.7489224 62.8046833,27.8028017 L64.3906333,30.1842672 C64.3853113,30.1303879 64.3853113,30.0711207 64.3853113,30.0172414 L64.3746674,28.0237069 C64.3746674,27.9859914 64.3799894,27.9482759 64.3853113,27.9159483 C64.3959553,27.862069 64.4172432,27.8189655 64.4438531,27.7758621 C64.481107,27.7165948 64.5343268,27.6788793 64.5928685,27.6465517 C64.6620543,27.6142241 64.736562,27.6034483 64.8057477,27.6034483 C64.8855774,27.6034483 64.9600852,27.6196121 65.0239489,27.6573276 C65.0771687,27.6842672 65.1250665,27.7219828 65.1569984,27.7758621 C65.1889303,27.8189655 65.2102182,27.8674569 65.2208622,27.9213362 C65.2261841,27.9536638 65.2315061,27.9859914 65.2315061,28.0237069 L65.2315061,31.4396552 C65.2315061,31.4719828 65.2261841,31.5096983 65.2208622,31.5420259 C65.2102182,31.5959052 65.1836083,31.6443966 65.1516764,31.6928879 C65.1144226,31.7467672 65.0665247,31.7844828 65.007983,31.8168103 C64.9334753,31.8545259 64.8483236,31.8653017 64.7631719,31.8653017 C64.6726982,31.8653017 64.5715806,31.8545259 64.4917509,31.8006466 C64.4438531,31.768319 64.3959553,31.7252155 64.3640234,31.6713362 L62.8525812,29.3922414 C62.8259713,29.3545259 62.7993614,29.3114224 62.7674295,29.268319 Z M49.9095263,29.6939655 L49.1538052,31.6228448 C49.1325173,31.6821121 49.1005854,31.7306034 49.0580096,31.7737069 C48.9781799,31.8545259 48.8557743,31.8653017 48.7493348,31.8653017 C48.6482171,31.8653017 48.5364556,31.8491379 48.4566259,31.7737069 C48.41405,31.7306034 48.3767962,31.6821121 48.3555082,31.6228448 L47.5944651,29.6724138 L47.621075,31.4396552 C47.621075,31.4773707 47.6157531,31.5096983 47.6104311,31.5474138 C47.5997871,31.5959052 47.5784992,31.6443966 47.5518893,31.6875 C47.5199574,31.7413793 47.4720596,31.7844828 47.4135178,31.8168103 C47.3496541,31.8545259 47.2751464,31.8653017 47.1953167,31.8653017 C47.1261309,31.8653017 47.0516232,31.8545259 46.9824375,31.8221983 C46.9238957,31.7952586 46.8706759,31.7521552 46.833422,31.6928879 C46.8068121,31.6497845 46.7855242,31.6012931 46.7748803,31.5528017 C46.7695583,31.5150862 46.7642363,31.4827586 46.7642363,31.450431 L46.7642363,28.0452586 C46.7642363,28.0021552 46.7695583,27.9536638 46.7802022,27.9105603 C46.7961682,27.8459052 46.833422,27.7866379 46.8813199,27.7327586 C46.9611495,27.6519397 46.9132517,27.700431 46.9984034,27.6573276 C47.0835551,27.6088362 47.2006386,27.5980603 47.3017563,27.5980603 C47.4188398,27.5980603 47.5678552,27.6088362 47.6583289,27.6896552 C47.7221927,27.7435345 47.7700905,27.8081897 47.8020224,27.8836207 L48.7706227,30.3997845 L49.7232571,27.8836207 C49.7551889,27.8135776 49.8030867,27.7489224 49.8616285,27.6950431 C49.9574242,27.6142241 50.1064396,27.5980603 50.2288451,27.5980603 C50.3086748,27.5980603 50.3938265,27.6088362 50.4736562,27.6357759 C50.5428419,27.6573276 50.6067057,27.6950431 50.6546035,27.7435345 C50.6971794,27.7920259 50.7291112,27.8512931 50.7397552,27.9105603 C50.7503991,27.9536638 50.7557211,28.0021552 50.7557211,28.0452586 L50.7557211,31.4450431 C50.7557211,31.4773707 50.7557211,31.5096983 50.7450772,31.5474138 C50.7344332,31.5959052 50.7184673,31.6443966 50.6865354,31.6875 C50.6546035,31.7413793 50.6067057,31.7844828 50.5534859,31.8168103 C50.4843002,31.8545259 50.4044705,31.8653017 50.3299627,31.8653017 C50.2235232,31.8653017 50.1170836,31.8383621 50.0319319,31.768319 C49.9308143,31.6875 49.8935604,31.5689655 49.8935604,31.4396552 L49.9095263,29.6939655 Z M34.2841937,31.8329741 C34.2522618,31.8329741 34.22033,31.8329741 34.1883981,31.8275862 C34.1351783,31.8221983 34.0819585,31.8006466 34.0340607,31.7737069 C33.9808409,31.7359914 33.9329431,31.6875 33.9010112,31.6282328 C33.8637573,31.5581897 33.8477914,31.4773707 33.8477914,31.3965517 L33.8477914,28.0721983 C33.8477914,27.9590517 33.8744013,27.8459052 33.948909,27.7596983 C34.0340607,27.6627155 34.1564662,27.6303879 34.2841937,27.6303879 L35.252794,27.6303879 C35.3805216,27.6303879 35.5082491,27.6357759 35.6359766,27.6411638 C35.7690261,27.6519397 35.9073976,27.6734914 36.040447,27.705819 C36.1788185,27.7381466 36.306546,27.7920259 36.4342735,27.862069 C36.572645,27.9321121 36.6950506,28.0344828 36.8014902,28.1530172 C36.9079297,28.2607759 36.9984034,28.3900862 37.0675891,28.5301724 C37.1314529,28.6594828 37.1793507,28.794181 37.2166046,28.9288793 C37.2538584,29.0581897 37.2804683,29.1928879 37.2911123,29.3275862 C37.3070782,29.4515086 37.3124002,29.5700431 37.3124002,29.6939655 C37.3124002,30.0118534 37.2751464,30.3405172 37.1687068,30.6422414 C37.0835551,30.8900862 36.9558276,31.1325431 36.7695583,31.3157328 C36.6524747,31.4396552 36.5194252,31.5420259 36.3650878,31.612069 C36.2267163,31.6821121 36.0830229,31.7306034 35.9340075,31.768319 C35.795636,31.8006466 35.6519425,31.8168103 35.5082491,31.8275862 C35.3805216,31.8329741 35.258116,31.8329741 35.1357105,31.8329741 L34.2841937,31.8329741 Z M29.0526876,27.5765086 C29.201703,27.5765086 29.3560404,27.5980603 29.4997339,27.6196121 C29.7072911,27.6573276 29.9042044,27.7327586 30.0851517,27.8405172 C30.2873869,27.9590517 30.4683342,28.1153017 30.6067057,28.3038793 C30.7237892,28.4655172 30.8249069,28.643319 30.8887706,28.8372845 C30.9419904,28.9989224 30.9845663,29.1659483 31.0005322,29.3383621 C31.0111762,29.4622845 31.0218201,29.5862069 31.0218201,29.7101293 C31.0218201,29.9040948 31.0058542,30.0980603 30.9686003,30.2866379 C30.9207025,30.5075431 30.8461948,30.7176724 30.7344332,30.9170259 C30.6279936,31.1056034 30.4949441,31.2780172 30.3299627,31.4234914 C30.1649814,31.5743534 29.9680681,31.6875 29.7605109,31.762931 C29.5369878,31.8491379 29.3028206,31.8868534 29.0633316,31.8868534 C28.7972326,31.8868534 28.5364556,31.84375 28.2916445,31.7521552 C28.0468334,31.6605603 27.8339542,31.5204741 27.6530069,31.3318966 C27.4614156,31.143319 27.3230442,30.90625 27.2272485,30.6530172 C27.115487,30.362069 27.0782331,30.049569 27.0782331,29.737069 C27.0782331,29.424569 27.1208089,29.112069 27.2325705,28.8265086 C27.3283662,28.5732759 27.4720596,28.3415948 27.6583289,28.1422414 C27.8392762,27.9590517 28.0521554,27.8189655 28.2916445,27.7219828 C28.5364556,27.625 28.7919106,27.5765086 29.0526876,27.5765086 Z M22.6875998,31.4342672 C22.6875998,31.4665948 22.6822778,31.4989224 22.6769558,31.5366379 C22.6663119,31.5851293 22.6503459,31.6336207 22.623736,31.6767241 C22.5918042,31.7306034 22.5385844,31.7790948 22.4853646,31.8114224 C22.4161788,31.8545259 22.3363491,31.8653017 22.2565194,31.8653017 C22.1447578,31.8653017 22.0436402,31.8329741 21.9584886,31.7575431 C21.8626929,31.6767241 21.8201171,31.5581897 21.8201171,31.4342672 L21.8201171,28.0398707 C21.8201171,28.0021552 21.8254391,27.9698276 21.830761,27.9375 C21.841405,27.8782328 21.8626929,27.8297414 21.8946248,27.78125 C21.9318787,27.7273707 21.9797765,27.6842672 22.0329963,27.6573276 C22.102182,27.6196121 22.1766897,27.6034483 22.2565194,27.6034483 C22.3363491,27.6034483 22.4161788,27.6196121 22.4853646,27.6573276 C22.5385844,27.6950431 22.5918042,27.7381466 22.623736,27.7974138 C22.6503459,27.8405172 22.6663119,27.8836207 22.6769558,27.9375 C22.6822778,27.9698276 22.6875998,28.0021552 22.6875998,28.0398707 L22.6875998,31.4342672 Z M17.3017563,30.9924569 L18.8930282,30.9924569 C18.9249601,30.9924569 18.956892,30.9978448 18.9835019,30.9978448 C19.0367217,31.0086207 19.0899415,31.0247845 19.1325173,31.0571121 C19.1857371,31.0894397 19.2283129,31.137931 19.2549228,31.1971983 C19.2921767,31.2618534 19.3028206,31.3372845 19.3028206,31.4073276 C19.3028206,31.4881466 19.2868547,31.5635776 19.2496009,31.6282328 C19.222991,31.6821121 19.1857371,31.7306034 19.1325173,31.762931 C19.0899415,31.7952586 19.0367217,31.8168103 18.9781799,31.8275862 C18.95157,31.8275862 18.9249601,31.8329741 18.8930282,31.8329741 L16.85471,31.8329741 C16.8121341,31.8329741 16.7748803,31.8275862 16.7323044,31.8221983 C16.6790846,31.8114224 16.6258648,31.7898707 16.577967,31.7575431 C16.5247472,31.7144397 16.4821714,31.6659483 16.4555615,31.606681 C16.4289516,31.5366379 16.4183076,31.4665948 16.4183076,31.3965517 L16.4183076,28.0344828 C16.4183076,27.9967672 16.4236296,27.9644397 16.4342735,27.9321121 C16.4449175,27.8782328 16.4662054,27.8243534 16.4928153,27.78125 C16.5300692,27.7273707 16.583289,27.6842672 16.6365088,27.6519397 C16.7056945,27.6196121 16.7855242,27.6034483 16.8600319,27.6034483 C16.9345396,27.6034483 17.0143693,27.6196121 17.0835551,27.6519397 C17.1367749,27.6842672 17.1846727,27.7219828 17.2219266,27.7758621 C17.2538584,27.8189655 17.2804683,27.8728448 17.2911123,27.9321121 C17.2964343,27.9644397 17.3017563,27.9967672 17.3017563,28.0344828 L17.3017563,30.9924569 Z M11.8999468,30.9924569 L13.4912187,30.9924569 C13.5231506,30.9924569 13.5550825,30.9978448 13.5816924,30.9978448 C13.6349122,31.0086207 13.688132,31.0247845 13.7307078,31.0571121 C13.7839276,31.0894397 13.8265035,31.137931 13.8584353,31.1971983 C13.8903672,31.2618534 13.9010112,31.3372845 13.9010112,31.4073276 C13.9010112,31.4881466 13.8903672,31.5635776 13.8531134,31.6282328 C13.8211815,31.6821121 13.7839276,31.7306034 13.7360298,31.762931 C13.688132,31.7952586 13.6349122,31.8168103 13.5816924,31.8275862 C13.5497605,31.8275862 13.5231506,31.8329741 13.4912187,31.8329741 L11.4529005,31.8329741 C11.4156466,31.8329741 11.3730708,31.8275862 11.3358169,31.8221983 C11.2772751,31.8114224 11.2240553,31.7898707 11.1761575,31.7575431 C11.1229377,31.7144397 11.0856839,31.6659483 11.059074,31.606681 C11.0271421,31.5366379 11.0218201,31.4665948 11.0218201,31.3965517 L11.0218201,28.0344828 C11.0218201,27.9967672 11.0271421,27.9644397 11.0324641,27.9321121 C11.043108,27.8782328 11.064396,27.8297414 11.0963278,27.78125 C11.1282597,27.7273707 11.1814795,27.6842672 11.2400213,27.6519397 C11.303885,27.6196121 11.3837147,27.6034483 11.4582225,27.6034483 C11.5380522,27.6034483 11.6125599,27.6196121 11.6817456,27.6519397 C11.7349654,27.6842672 11.7881852,27.7219828 11.8201171,27.7758621 C11.8573709,27.8189655 11.8786589,27.8728448 11.8893028,27.9321121 C11.8946248,27.9644397 11.8999468,27.9967672 11.8999468,28.0344828 L11.8999468,30.9924569 Z M7.94039383,31.4342672 C7.94039383,31.4665948 7.93507185,31.4989224 7.92974987,31.5366379 C7.91910591,31.5851293 7.89781799,31.6336207 7.87120809,31.6767241 C7.83927621,31.7359914 7.79137839,31.7790948 7.73283662,31.8114224 C7.66365088,31.8545259 7.58382118,31.8653017 7.50399148,31.8653017 C7.39222991,31.8653017 7.29111229,31.8329741 7.20596062,31.7575431 C7.11016498,31.6767241 7.07291112,31.5581897 7.07291112,31.4342672 L7.07291112,28.0398707 C7.07291112,28.0021552 7.07291112,27.9698276 7.08355508,27.9321121 C7.08887706,27.8782328 7.11548696,27.8297414 7.14209686,27.78125 C7.17935072,27.7273707 7.22724854,27.6842672 7.28046833,27.6573276 C7.34965407,27.6196121 7.42948377,27.6034483 7.50399148,27.6034483 C7.58382118,27.6034483 7.66365088,27.6196121 7.73283662,27.6573276 C7.79137839,27.6950431 7.83927621,27.7381466 7.87120809,27.7974138 C7.89781799,27.8405172 7.91910591,27.8836207 7.92974987,27.9375 C7.93507185,27.9698276 7.94039383,28.0021552 7.94039383,28.0398707 L7.94039383,31.4342672 Z M3.14529005,29.6939655 L2.38956892,31.6228448 C2.368281,31.6821121 2.33634912,31.7306034 2.29377328,31.7737069 C2.21394359,31.8545259 2.09153805,31.8653017 1.98509846,31.8653017 C1.88398084,31.8653017 1.77221927,31.8491379 1.69771155,31.7737069 C1.64981373,31.7306034 1.61255987,31.6821121 1.59127195,31.6228448 L0.830228845,29.6778017 L0.856838744,31.4396552 C0.856838744,31.4773707 0.851516764,31.5096983 0.846194784,31.5474138 C0.835550825,31.5959052 0.814262906,31.6443966 0.787653007,31.6875 C0.755721128,31.7413793 0.70782331,31.7844828 0.649281533,31.8168103 C0.585417775,31.8545259 0.510910059,31.8653017 0.436402342,31.8653017 C0.361894625,31.8653017 0.287386908,31.8545259 0.218201171,31.8221983 C0.159659393,31.7952586 0.106439596,31.7521552 0.0691857371,31.6928879 C0.0425758382,31.6497845 0.0212879191,31.6012931 0.0106439596,31.5528017 C0.00532197978,31.5150862 0,31.4827586 0,31.450431 L0,28.0452586 C0,28.0021552 0.00532197978,27.9536638 0.0159659393,27.9105603 C0.0319318787,27.8459052 0.0691857371,27.7866379 0.117083555,27.7327586 C0.196913252,27.6519397 0.154337414,27.700431 0.23416711,27.6573276 C0.319318787,27.6088362 0.436402342,27.5980603 0.537519957,27.5980603 C0.654603513,27.5980603 0.803618946,27.6088362 0.899414582,27.6896552 C0.95795636,27.7435345 1.00585418,27.8081897 1.03778606,27.8836207 L2.00638638,30.3997845 L2.95902076,27.8836207 C2.99095263,27.8135776 3.03885045,27.7489224 3.09739223,27.6950431 C3.19318787,27.6142241 3.3422033,27.5980603 3.46460883,27.5980603 C3.54443853,27.5980603 3.63491219,27.6088362 3.7094199,27.6357759 C3.77860564,27.6573276 3.8424694,27.6950431 3.89036722,27.7435345 C3.93294305,27.7920259 3.96487493,27.8512931 3.98084087,27.9105603 C3.99148483,27.9536638 3.99680681,28.0021552 3.99680681,28.0452586 L3.99680681,31.4450431 C3.99680681,31.4773707 3.99148483,31.5150862 3.98084087,31.5474138 C3.97019691,31.5959052 3.95423097,31.6443966 3.92762108,31.6875 C3.89036722,31.7413793 3.8424694,31.7844828 3.7892496,31.8168103 C3.72006386,31.8545259 3.64023417,31.8653017 3.56572645,31.8653017 C3.45928685,31.8653017 3.35284726,31.8383621 3.26769558,31.768319 C3.17189995,31.6875 3.12932411,31.5689655 3.12932411,31.4396552 L3.14529005,29.6939655 Z M42.9962746,29.2844828 C42.9856307,29.2306034 42.9696647,29.1713362 42.9483768,29.1174569 C42.895157,28.9719828 42.8206493,28.8318966 42.7195317,28.7133621 C42.623736,28.6109914 42.5119745,28.5301724 42.3842469,28.4762931 C42.2511974,28.4170259 42.107504,28.3900862 41.9638105,28.3900862 C41.8147951,28.3900862 41.6711016,28.4170259 41.5380522,28.481681 C41.4103246,28.5355603 41.2985631,28.6217672 41.2027674,28.7295259 C41.1708356,28.7672414 41.1389037,28.794181 41.1016498,28.8211207 C41.059074,28.8480603 41.0111762,28.8696121 40.9632783,28.8803879 C40.8994146,28.8965517 40.8355508,28.8911638 40.7716871,28.875 C40.6971794,28.8534483 40.6333156,28.8103448 40.5747738,28.7510776 C40.521554,28.6971983 40.4843002,28.6325431 40.4630122,28.5625 C40.4364023,28.4762931 40.4364023,28.3793103 40.4736562,28.2931034 C40.5002661,28.2392241 40.532198,28.1907328 40.5747738,28.1422414 C40.7557211,27.9590517 40.9686003,27.8189655 41.2080894,27.7219828 C41.4529005,27.625 41.7083555,27.5765086 41.9691325,27.5765086 C42.118148,27.5765086 42.2671634,27.5980603 42.4161788,27.6196121 C42.623736,27.6573276 42.8206493,27.7327586 43.0015966,27.8405172 C43.2038318,27.9590517 43.3847791,28.1153017 43.5231506,28.3038793 C43.6402342,28.4709052 43.7360298,28.643319 43.8052155,28.8372845 C43.8584353,28.9989224 43.9010112,29.1659483 43.9169771,29.3383621 C43.9276211,29.4622845 43.938265,29.5862069 43.938265,29.7101293 C43.938265,29.9040948 43.9222991,30.0980603 43.8797233,30.2866379 C43.8371474,30.5075431 43.7573177,30.7176724 43.6508781,30.9170259 C43.5444385,31.1056034 43.4060671,31.2780172 43.2464077,31.4234914 C43.0761043,31.5743534 42.884513,31.6875 42.6769558,31.762931 C42.4534327,31.8491379 42.2192656,31.8868534 41.9797765,31.8868534 C41.7136775,31.8868534 41.4529005,31.84375 41.2080894,31.7521552 C40.9632783,31.6605603 40.7503991,31.5204741 40.5694518,31.3318966 C40.3778606,31.143319 40.2394891,30.90625 40.1436935,30.6530172 C40.0319319,30.362069 39.994678,30.049569 39.994678,29.737069 C39.994678,29.7209052 39.994678,29.7101293 39.994678,29.6993534 C39.994678,29.5538793 40.0425758,29.424569 40.1703034,29.3491379 C40.2075572,29.3221983 40.255455,29.3060345 40.2980309,29.2952586 C40.3299627,29.2898707 40.3618946,29.2844828 40.3938265,29.2844828 L42.9962746,29.2844828 Z M56.583289,29.2844828 C56.572645,29.2306034 56.5566791,29.1713362 56.5353912,29.1174569 C56.4821714,28.9719828 56.4076637,28.8318966 56.3012241,28.7133621 C56.2107504,28.6109914 56.0989888,28.5301724 55.9712613,28.4762931 C55.8328898,28.4170259 55.6945184,28.3900862 55.5455029,28.3900862 C55.4018095,28.3900862 55.258116,28.4170259 55.1250665,28.481681 C54.992017,28.5355603 54.8802555,28.6217672 54.7897818,28.7295259 C54.7578499,28.7672414 54.725918,28.794181 54.6833422,28.8211207 C54.6460883,28.8480603 54.5981905,28.8696121 54.5502927,28.8803879 C54.486429,28.8965517 54.4225652,28.8911638 54.3587014,28.875 C54.2788717,28.8534483 54.215008,28.8103448 54.1617882,28.7510776 C54.1085684,28.6971983 54.0713145,28.6325431 54.0500266,28.5625 C54.0234167,28.4762931 54.0180947,28.3793103 54.0553486,28.2931034 C54.0819585,28.2392241 54.1192123,28.1907328 54.1617882,28.1422414 C54.3427355,27.9590517 54.5556147,27.8189655 54.7897818,27.7219828 C55.0345929,27.625 55.2900479,27.5765086 55.5508249,27.5765086 C55.7051623,27.5765086 55.8541778,27.5980603 56.0031932,27.6196121 C56.2107504,27.6573276 56.4076637,27.7327586 56.588611,27.8405172 C56.7908462,27.9590517 56.9664715,28.1153017 57.110165,28.3038793 C57.2272485,28.4655172 57.3230442,28.643319 57.3869079,28.8372845 C57.4454497,28.9989224 57.4827036,29.1659483 57.4986695,29.3383621 C57.5146354,29.4622845 57.5252794,29.5862069 57.5252794,29.7101293 C57.5252794,29.9040948 57.5039915,30.0980603 57.4667376,30.2866379 C57.4188398,30.5075431 57.3443321,30.7176724 57.2325705,30.9170259 C57.1261309,31.1056034 56.9930814,31.2780172 56.8281001,31.4234914 C56.6631187,31.5743534 56.4715274,31.6875 56.2639702,31.762931 C56.040447,31.8491379 55.800958,31.8868534 55.5614689,31.8868534 C55.3006919,31.8868534 55.0399148,31.84375 54.7897818,31.7521552 C54.5502927,31.6605603 54.3320915,31.5204741 54.1511442,31.3318966 C53.9648749,31.143319 53.8265035,30.90625 53.7307078,30.6530172 C53.6189462,30.362069 53.5763704,30.049569 53.5763704,29.737069 C53.5763704,29.7209052 53.5763704,29.7101293 53.5763704,29.6993534 C53.5763704,29.5538793 53.6242682,29.424569 53.7519957,29.3491379 C53.7945716,29.3221983 53.8371474,29.3060345 53.8850452,29.2952586 C53.9169771,29.2898707 53.948909,29.2844828 53.9808409,29.2844828 L56.583289,29.2844828 Z M89.4944119,29.2844828 C89.483768,29.2306034 89.467802,29.1713362 89.4465141,29.1174569 C89.3932943,28.9719828 89.3187866,28.8318966 89.217669,28.7133621 C89.1218733,28.6109914 89.0101118,28.5301724 88.8823842,28.4762931 C88.7493348,28.4170259 88.6056413,28.3900862 88.4619478,28.3900862 C88.3129324,28.3900862 88.169239,28.4170259 88.0361895,28.481681 C87.90314,28.5355603 87.7967004,28.6217672 87.7009047,28.7295259 C87.6689729,28.7672414 87.637041,28.794181 87.5944651,28.8211207 C87.5572113,28.8480603 87.5093135,28.8696121 87.4614156,28.8803879 C87.3975519,28.8965517 87.3336881,28.8911638 87.2698244,28.875 C87.1953167,28.8534483 87.1261309,28.8103448 87.0729111,28.7510776 C87.0196913,28.6971983 86.9824375,28.6325431 86.9611495,28.5625 C86.9345396,28.4762931 86.9345396,28.3793103 86.9717935,28.2931034 C86.9930814,28.2392241 87.0303353,28.1907328 87.0729111,28.1422414 C87.2538584,27.9590517 87.4667376,27.8189655 87.7062267,27.7219828 C87.9457158,27.625 88.2064928,27.5765086 88.4672698,27.5765086 C88.6162853,27.5765086 88.7653007,27.5980603 88.9143161,27.6196121 C89.1218733,27.6573276 89.3187866,27.7327586 89.4997339,27.8405172 C89.7019691,27.9590517 89.8829164,28.1153017 90.0212879,28.3038793 C90.1383715,28.4709052 90.2341671,28.643319 90.2980309,28.8372845 C90.3565726,28.9989224 90.3991485,29.1659483 90.4151144,29.3383621 C90.4257584,29.4622845 90.4364023,29.5862069 90.4364023,29.7101293 C90.4364023,29.9040948 90.4204364,30.0980603 90.3778606,30.2866379 C90.3299627,30.5075431 90.255455,30.7176724 90.1490154,30.9170259 C90.0425758,31.1056034 89.9042044,31.2780172 89.744545,31.4234914 C89.5742416,31.5743534 89.3826503,31.6875 89.1750931,31.762931 C88.95157,31.8491379 88.7120809,31.8868534 88.4779138,31.8868534 C88.2118148,31.8868534 87.9510378,31.84375 87.7009047,31.7521552 C87.4614156,31.6605603 87.2432145,31.5204741 87.0622672,31.3318966 C86.8759979,31.143319 86.7376264,30.90625 86.6418308,30.6530172 C86.5300692,30.362069 86.4874933,30.049569 86.4874933,29.737069 C86.4874933,29.7209052 86.4874933,29.7101293 86.4874933,29.6993534 C86.4928153,29.5538793 86.5353912,29.424569 86.6684407,29.3491379 C86.7056945,29.3221983 86.7482704,29.3060345 86.7961682,29.2952586 C86.8281001,29.2898707 86.8600319,29.2844828 86.8919638,29.2844828 L89.4944119,29.2844828 Z M7.50399148,26.4827586 C7.75944651,26.4827586 7.96700373,26.6928879 7.96700373,26.9515086 C7.96700373,27.2047414 7.75944651,27.4148707 7.50399148,27.4148707 C7.24853646,27.4148707 7.04097924,27.2047414 7.04097924,26.9515086 C7.04097924,26.6928879 7.24853646,26.4827586 7.50399148,26.4827586 Z M22.2565194,26.4827586 C22.5119745,26.4827586 22.7142097,26.6928879 22.7142097,26.9515086 C22.7142097,27.2047414 22.5119745,27.4148707 22.2565194,27.4148707 C22.0010644,27.4148707 21.7935072,27.2047414 21.7935072,26.9515086 C21.7935072,26.6928879 22.0010644,26.4827586 22.2565194,26.4827586 Z M99.5369878,26.4827586 C99.7924428,26.4827586 100,26.6928879 100,26.9515086 C100,27.2047414 99.7924428,27.4148707 99.5369878,27.4148707 C99.2868547,27.4148707 99.0792975,27.2047414 99.0792975,26.9515086 C99.0792975,26.6928879 99.2868547,26.4827586 99.5369878,26.4827586 Z M77.621075,30.3459052 C77.642363,30.2866379 77.6583289,30.2327586 77.6742948,30.1734914 C77.7115487,30.0172414 77.7275146,29.8556034 77.7275146,29.6939655 C77.7275146,29.5 77.7062267,29.3114224 77.642363,29.1282328 C77.5944651,28.9827586 77.5199574,28.8426724 77.4188398,28.7241379 C77.3230442,28.6163793 77.2112826,28.5301724 77.0835551,28.4762931 C76.9451836,28.4116379 76.8014902,28.3846983 76.6524747,28.3846983 C76.5087813,28.3846983 76.3704098,28.4170259 76.2373603,28.4709052 C76.1096328,28.5301724 75.9978712,28.6109914 75.9020756,28.71875 C75.800958,28.8426724 75.7264502,28.9881466 75.6732304,29.1390086 C75.6040447,29.3275862 75.5827568,29.5323276 75.5827568,29.731681 C75.5827568,29.9148707 75.6040447,30.1034483 75.6572645,30.2866379 C75.6998403,30.4375 75.7637041,30.5829741 75.8648217,30.7068966 C75.9552954,30.8200431 76.0670569,30.9116379 76.2001064,30.9762931 C76.3384779,31.0463362 76.4981373,31.0732759 76.6577967,31.0732759 C76.7695583,31.0732759 76.9026078,31.0625 77.0037254,31.0140086 C77.0250133,31.0086207 77.0409792,30.9978448 77.0622672,30.9924569 L76.9771155,30.90625 C76.9132517,30.8415948 76.8759979,30.7553879 76.8759979,30.6637931 C76.8759979,30.5991379 76.8919638,30.5398707 76.9185737,30.4859914 C76.9451836,30.4375 76.9771155,30.3943966 77.0090474,30.356681 C77.0516232,30.3135776 77.099521,30.2758621 77.1474188,30.2489224 C77.2059606,30.2165948 77.2698244,30.200431 77.3390101,30.200431 C77.4348057,30.200431 77.370942,30.1842672 77.4667376,30.2273707 C77.4986695,30.2435345 77.5252794,30.2596983 77.5518893,30.2758621 L77.5678552,30.2866379 L77.621075,30.3459052 Z M71.1016498,29.6885776 C71.1016498,29.4946121 71.0803619,29.3006466 71.0111762,29.1174569 C70.9579564,28.9719828 70.8834486,28.8318966 70.782331,28.7133621 C70.6865354,28.6109914 70.5747738,28.5301724 70.4470463,28.4762931 C70.3139968,28.4170259 70.1703034,28.3900862 70.0266099,28.3900862 C69.8775945,28.3900862 69.739223,28.4170259 69.6008515,28.481681 C69.473124,28.5355603 69.3613624,28.6217672 69.2655668,28.7295259 C69.1644492,28.8480603 69.0899415,28.9935345 69.0420436,29.1443966 C68.9781799,29.3221983 68.956892,29.5161638 68.956892,29.7101293 C68.956892,29.9094828 68.9781799,30.1142241 69.0367217,30.3081897 C69.0846195,30.4590517 69.1591272,30.6045259 69.2602448,30.7284483 C69.3507185,30.8415948 69.4571581,30.9224138 69.5848856,30.981681 C69.7232571,31.0409483 69.8722725,31.0678879 70.0212879,31.0678879 C70.1969133,31.0678879 70.3725386,31.0409483 70.526876,30.9493534 C70.6599255,30.8685345 70.7716871,30.7607759 70.8568387,30.6314655 C70.9419904,30.4967672 71.0058542,30.3459052 71.043108,30.1842672 C71.0803619,30.0226293 71.1016498,29.8556034 71.1016498,29.6885776 Z M34.7205961,31.0086207 L34.9175093,31.0086207 C35.0824907,31.0086207 35.2421501,31.0032328 35.4071315,30.9978448 C35.529537,30.9924569 35.6519425,30.9762931 35.7743481,30.9439655 C35.8648217,30.9170259 35.9552954,30.8793103 36.0351251,30.8146552 C36.1202767,30.75 36.1894625,30.6637931 36.2426823,30.5668103 C36.2852581,30.5021552 36.31719,30.4321121 36.3384779,30.356681 C36.3597658,30.2758621 36.3810538,30.1950431 36.3970197,30.1142241 C36.4129856,30.0387931 36.4183076,29.9633621 36.4236296,29.887931 C36.4289516,29.8232759 36.4342735,29.7586207 36.4342735,29.6939655 C36.4342735,29.5538793 36.4183076,29.419181 36.3970197,29.2844828 C36.3704098,29.1497845 36.327834,29.0258621 36.2639702,28.9073276 C36.2160724,28.8211207 36.1628526,28.7456897 36.0883449,28.6864224 C36.0244811,28.6325431 35.9552954,28.5840517 35.8807877,28.5517241 C35.8116019,28.5247845 35.7424162,28.5032328 35.6679085,28.4924569 C35.5880788,28.481681 35.513571,28.4709052 35.4337414,28.4601293 C35.3698776,28.4547414 35.3060138,28.4547414 35.2474721,28.4547414 C35.1623204,28.4547414 35.0824907,28.4547414 34.997339,28.4547414 L34.7205961,28.4547414 L34.7205961,31.0086207 Z M30.1224055,29.6885776 C30.1224055,29.4946121 30.1011176,29.3006466 30.0372539,29.1174569 C29.9840341,28.9719828 29.9095263,28.8318966 29.8030867,28.7133621 C29.7072911,28.6109914 29.6008515,28.5301724 29.467802,28.4762931 C29.3347525,28.4170259 29.1910591,28.3900862 29.0473656,28.3900862 C28.8983502,28.3900862 28.7599787,28.4170259 28.6216072,28.481681 C28.4938797,28.5355603 28.3821181,28.6217672 28.2863225,28.7295259 C28.1852049,28.8480603 28.1106972,28.9935345 28.0627994,29.1443966 C27.9989356,29.3221983 27.9776477,29.5161638 27.9776477,29.7101293 C27.9776477,29.9094828 27.9989356,30.1142241 28.0574774,30.3081897 C28.1106972,30.4590517 28.1798829,30.6045259 28.2810005,30.7284483 C28.3714742,30.8415948 28.4779138,30.9224138 28.6056413,30.981681 C28.7440128,31.0409483 28.8930282,31.0678879 29.0420436,31.0678879 C29.217669,31.0678879 29.3932943,31.0409483 29.5476317,30.9493534 C29.6806812,30.8685345 29.7924428,30.7607759 29.8775945,30.6314655 C29.9627461,30.4967672 30.0266099,30.3459052 30.0638638,30.1842672 C30.1011176,30.0226293 30.1224055,29.8556034 30.1224055,29.6885776 Z M42.9962746,30.1034483 L40.9260245,30.1034483 C40.9366684,30.1734914 40.9526344,30.2435345 40.9739223,30.3081897 C41.0218201,30.4590517 41.0963278,30.6045259 41.1974454,30.7284483 C41.2879191,30.8415948 41.3943587,30.9224138 41.5220862,30.981681 C41.6604577,31.0409483 41.8094731,31.0678879 41.9584886,31.0678879 C42.1341139,31.0678879 42.3097392,31.0409483 42.4640766,30.9493534 C42.5971261,30.8685345 42.7088877,30.7607759 42.7940394,30.6314655 C42.8791911,30.4967672 42.9430548,30.3459052 42.9803087,30.1842672 C42.9856307,30.1573276 42.9909526,30.1303879 42.9962746,30.1034483 Z M56.583289,30.1034483 L54.5077169,30.1034483 C54.5236828,30.1734914 54.5396487,30.2435345 54.5609367,30.3081897 C54.6088345,30.4590517 54.6780202,30.6045259 54.7791378,30.7284483 C54.8696115,30.8415948 54.9813731,30.9224138 55.1091006,30.981681 C55.2474721,31.0409483 55.3911655,31.0678879 55.5401809,31.0678879 C55.7158063,31.0678879 55.8967536,31.0409483 56.045769,30.9493534 C56.1788185,30.8685345 56.2905801,30.7607759 56.3757318,30.6314655 C56.4662054,30.4967672 56.5247472,30.3459052 56.5620011,30.1842672 C56.567323,30.1573276 56.577967,30.1303879 56.583289,30.1034483 Z M89.4944119,30.1034483 L87.4241618,30.1034483 C87.4348057,30.1734914 87.4507717,30.2435345 87.4720596,30.3081897 C87.5199574,30.4590517 87.5891432,30.6045259 87.6902608,30.7284483 C87.7807344,30.8415948 87.892496,30.9224138 88.0202235,30.981681 C88.158595,31.0409483 88.3022885,31.0678879 88.4566259,31.0678879 C88.6269292,31.0678879 88.8078765,31.0409483 88.956892,30.9493534 C89.0899415,30.8685345 89.201703,30.7607759 89.2868547,30.6314655 C89.3773284,30.4967672 89.4411921,30.3459052 89.478446,30.1842672 C89.483768,30.1573276 89.4890899,30.1303879 89.4944119,30.1034483 Z" id="Shape"></path>
            </g>
        </g>
    </g>
</svg>